@startuml
'https://plantuml.com/class-diagram
abstract class AbstractFile{
- String name, path
+ {abstract} String getStringTreeFolder()
+ String getPath()
+ {abstract} void addItem(AbstractFile f)
}
class File
class Folder
Folder --|> AbstractFile
File --|> AbstractFile
Folder *--> AbstractFile : files
@enduml